inDegrees=yes
name=ik_OwnShooting_orientations
DataType=double
version=3
OpenSimVersion=4.3-2021-08-27-4bc7ad9
endheader
time	pelvis_tilt	pelvis_list	pelvis_rotation	pelvis_tx	pelvis_ty	pelvis_tz	hip_flexion_r	hip_adduction_r	hip_rotation_r	knee_angle_r	knee_angle_r_beta	ankle_angle_r	subtalar_angle_r	mtp_angle_r	hip_flexion_l	hip_adduction_l	hip_rotation_l	knee_angle_l	knee_angle_l_beta	ankle_angle_l	subtalar_angle_l	mtp_angle_l	lumbar_extension	lumbar_bending	lumbar_rotation	arm_flex_r	arm_add_r	arm_rot_r	elbow_flex_r	pro_sup_r	wrist_flex_r	wrist_dev_r	arm_flex_l	arm_add_l	arm_rot_l	elbow_flex_l	pro_sup_l	wrist_flex_l	wrist_dev_l
9.83	-6.579543257128571	-12.65362218476142	-99.72689303212921	0	0.9399999999999999	0	40.89917323506299	-10.22362759719475	0	58.54737123774947	1.021844396486156	-5.064166300324213	0	0	40.89917323506299	-10.22362759719475	0	58.54737123774947	1.021844396486156	-5.064166300324213	0	0	0.00781989757844931	-7.756480207046085e-05	-0.009353191495165322	-0.001264437725961364	-0.0016539092750611	0.005339993776463044	76.49022674506851	45.92638443442639	0	0	0	-9.7748141390345	0	76.49022674506851	45.92638443442639	0	0
9.84	-6.576381432343317	-12.59915914969919	-99.65918380867787	0	0.9399999999999999	0	40.89924229925307	-10.22361536102341	0	58.54739146721764	1.021844749556982	-5.064161782971486	0	0	40.89924229925307	-10.22361536102341	0	58.54739146721764	1.021844749556982	-5.064161782971486	0	0	-0.006943493641483005	0.005387493855919654	0.007406447588669009	-0.006726008622889968	0.001075153495022448	0.01055682186835023	76.4902017073951	45.92634381923244	0	0	0	-9.774860956386771	0	76.4902017073951	45.92634381923244	0	0
9.85	-6.591162228565034	-12.59697979970348	-99.63435544701569	0	0.9399999999999999	0	40.91404127878664	-10.22115166354435	0	58.55154718527263	1.021917280519826	-5.063280345512562	0	0	40.91404127878664	-10.22115166354435	0	58.55154718527263	1.021917280519826	-5.063280345512562	0	0	0.000183851124731675	0.007495397342306438	-0.00364916964031982	0.002542230497391633	-0.004955173215575441	-0.007094682675967135	76.48483511371347	45.91798398890669	0	-4.10342503594702e-36	0	-9.784807866259921	0	76.48483511371347	45.91798398890669	0	-4.10342503594702e-36
9.859999999999999	-6.614313696080809	-12.62130655169791	-99.64356749316858	0	0.9399999999999999	0	40.92149053818409	-10.22010550448866	0	58.55367048539177	1.021954339097913	-5.062931128560365	0	0	40.92149053818409	-10.22010550448866	0	58.55367048539177	1.021954339097913	-5.062931128560365	0	0	-0.003303508460281481	0.004313157273692144	0.000551690190685657	-0.005294627712410679	0.004212426355634797	0.003333457438849014	76.48213205034467	45.91425668367771	0	0	0	-9.789989630165044	0	76.48213205034467	45.91425668367771	0	0
9.869999999999999	-6.610936244261076	-12.61250947570181	-99.62820845030612	0	0.9399999999999999	0	40.93589699653722	-10.21774343345833	0	58.55772226682873	1.022025056024559	-5.062091560426945	0	0	40.93589699653722	-10.21774343345833	0	58.55772226682873	1.022025056024559	-5.062091560426945	0	0	0.002528536044222393	0.005863140843299471	-0.00257758707998553	0.00428477391242085	-0.004886084776436915	-0.003738972523846213	76.47690763667084	45.9062056577793	0	0	0	-9.79970197302019	0	76.47690763667084	45.9062056577793	0	0
9.880000000000001	-6.598410236405981	-12.59744154241767	-99.64559765059873	0	0.9399999999999999	0	40.94780072947261	-10.2156692487871	0	58.56104865630875	1.022083112473189	-5.061338453807847	0	0	40.94780072947261	-10.2156692487871	0	58.56104865630875	1.022083112473189	-5.061338453807847	0	0	-0.0006067896359953618	0.005546708661173039	-0.0006932131262206462	0.0007418384123591152	-0.003027899007696452	0.0008695968520862876	76.47259201027119	45.89924856995355	0	0	0	-9.807613839453392	0	76.47259201027119	45.89924856995355	0	0
9.890000000000001	-6.59764800603761	-12.61457855134881	-99.68471991908852	0	0.9399999999999999	0	40.96214977337183	-10.21326571710714	0	58.56507173578237	1.022153328456073	-5.060480227541791	0	0	40.96214977337183	-10.21326571710714	0	58.56507173578237	1.022153328456073	-5.060480227541791	0	0	-0.002890281038862632	0.005397329955961839	-0.002734775886740763	-0.003268858871843756	0.003745708249381284	0.001566798604198949	76.46738932843829	45.89109318447174	0	0	0	-9.817224684905886	0	76.46738932843829	45.89109318447174	0	0
9.9	-6.596576558149409	-12.60231418965017	-99.66721994894043	0	0.9399999999999999	0	40.97627178316662	-10.21089882524086	0	58.56903523101562	1.02222250449778	-5.059631792973423	0	0	40.97627178316662	-10.21089882524086	0	58.56903523101562	1.02222250449778	-5.059631792973423	0	0	0.0005622221098251906	0.006065075280105971	-0.001898984982713725	0.002885660225371748	-0.005857766182501644	-0.002356387965607349	76.4622684485268	45.88307535814164	0	0	0	-9.826702258349938	0	76.4622684485268	45.88307535814164	0	0
9.91	-6.593596628757656	-12.60263027960216	-99.68048154600517	0	0.9399999999999999	0	40.98781158810363	-10.20906259118455	0	58.572288237519	1.022279280171853	-5.058987258742833	0	0	40.98781158810363	-10.20906259118455	0	58.572288237519	1.022279280171853	-5.058987258742833	0	0	-0.001440241264927651	0.005803736666388742	0.001326379015890539	-0.001413466632427531	-0.004081457814366208	0.002974349562133928	76.45808338891899	45.87676182765361	0	0	0	-9.834527943749487	0	76.45808338891899	45.87676182765361	0	0
9.92	-6.598308342006362	-12.60733933490604	-99.66383773466936	0	0.9399999999999999	0	40.9998661274935	-10.20717521093572	0	58.57569298666946	1.022338704254733	-5.058328016055709	0	0	40.9998661274935	-10.20717521093572	0	58.57569298666946	1.022338704254733	-5.058328016055709	0	0	-0.0004030538111427268	0.007142632455591067	-0.002724696380929104	-0.0002122314569094079	-0.005205359880038531	-0.004435209538690105	76.45371126282942	45.87024674838568	0	0	0	-9.842737525937535	0	76.45371126282942	45.87024674838568	0	0
9.93	-6.573669439054226	-12.56238840538967	-99.58014234896042	0	0.9399999999999999	0	40.9999350658784	-10.20716365050533	0	58.57571333735361	1.022339059441177	-5.058323831550663	0	0	40.9999350658784	-10.20716365050533	0	58.57571333735361	1.022339059441177	-5.058323831550663	0	0	-0.0112320196738314	0.01745237244431625	0.01628705518923262	-0.004214305534769999	0.0004388596504268856	0.003943683811443559	76.45368626642721	45.87020781443758	0	0	0	-9.842784901268178	0	76.45368626642721	45.87020781443758	0	0
9.94	-6.593723558325583	-12.58330351783361	-99.56879012953992	0	0.9399999999999999	0	41.00486499234106	-10.20620856343708	0	58.57707572666583	1.022362837620369	-5.057965028344086	0	0	41.00486499234106	-10.20620856343708	0	58.57707572666583	1.022362837620369	-5.057965028344086	0	0	-0.001768001347344399	0.01028279099339954	0.00968585671735436	0.0005752816364926301	-0.004265764721455041	-0.0006440630755364185	76.4518997277557	45.86708909813395	0	0	0	-9.845976497125646	0	76.4518997277557	45.86708909813395	0	0
9.949999999999999	-6.587761170887961	-12.56515330353641	-99.64092268153405	0	0.9399999999999999	0	41.004930227419	-10.20619761475143	0	58.57709493218627	1.022363172819935	-5.057961067829821	0	0	41.004930227419	-10.20619761475143	0	58.57709493218627	1.022363172819935	-5.057961067829821	0	0	-0.004494738063772112	0.001800631639121809	-0.009003635909232938	-0.0005351590582418073	-0.007153524291470573	-0.007878133862618318	76.45187607431764	45.86705221597573	0	0	0	-9.846021258529881	0	76.45187607431764	45.86705221597573	0	0
9.960000000000001	-6.594826541210182	-12.53139567228973	-99.70354916076742	0	0.9399999999999999	0	41.01546147301541	-10.20404811632653	0	58.57998940478019	1.022413690896808	-5.057138616945182	0	0	41.01546147301541	-10.20404811632653	0	58.57998940478019	1.022413690896808	-5.057138616945182	0	0	-0.003790502303979153	0.002941262352585246	-0.003567383097656209	0.001226877981209389	-0.003786776676616642	0.003427772532852695	76.44806036117841	45.86012948025941	0	0	0	-9.852756186966699	0	76.44806036117841	45.86012948025941	0	0
9.970000000000001	-6.610480880759684	-12.55761879970145	-99.71958042977514	0	0.9399999999999999	0	41.03286736360235	-10.20168557915516	0	58.58496082725365	1.022500458587477	-5.056367777200308	0	0	41.03286736360235	-10.20168557915516	0	58.58496082725365	1.022500458587477	-5.056367777200308	0	0	-0.002002385702919209	0.01022955349781778	0.002107998769660734	-0.003737542550791543	0.001150149027214068	0.003471121237569473	76.44174538083566	45.85160412353459	0	0	0	-9.864910580485125	0	76.44174538083566	45.85160412353459	0	0
9.98	-6.593555205019335	-12.50568912076693	-99.6357832394971	0	0.9399999999999999	0	41.03293669833742	-10.20167413566902	0	58.58498129125532	1.022500815751684	-5.056363663121573	0	0	41.03293669833742	-10.20167413566902	0	58.58498129125532	1.022500815751684	-5.056363663121573	0	0	-0.01333566532279688	0.01722460328057312	0.01889886741486395	-0.00695750505598417	0.00372871271373185	0.008816342605849464	76.44172023964363	45.85156540141973	0	0	0	-9.864958351094653	0	76.44172023964363	45.85156540141973	0	0
9.99	-6.549018847177832	-12.48545427656953	-99.69937082549484	0	0.9399999999999999	0	41.03299943285485	-10.20166371078326	0	58.58499971861584	1.022501137369798	-5.056359909762052	0	0	41.03299943285485	-10.20166371078326	0	58.58499971861584	1.022501137369798	-5.056359909762052	0	0	-0.01513526738487148	0.01699435756191723	-0.001208308677386658	-0.005824587307748988	0.002420399835012875	-0.001369748071136691	76.44169749231757	45.85153017142758	0	0	0	-9.865001424462168	0	76.44169749231757	45.85153017142758	0	0
